<svg xmlns="http://www.w3.org/2000/svg" width="960" height="540" viewBox="0 0 960 540" role="img" aria-label="Cognitive diagnosis loop">
  <rect width="960" height="540" rx="32" fill="#111827"/>
  <text x="60" y="78" fill="#f9fafb" font-size="32" font-weight="800">Cognitive Diagnosis Loop</text>
  <g fill="#f9fafb" font-size="21" font-weight="700">
    <rect x="90" y="170" width="185" height="96" rx="22" fill="#1d4ed8" opacity="0.8"/><text x="125" y="225">Quiz events</text>
    <rect x="375" y="140" width="210" height="96" rx="22" fill="#7c3aed" opacity="0.8"/><text x="405" y="195">Knowledge map</text>
    <rect x="685" y="170" width="190" height="96" rx="22" fill="#b45309" opacity="0.85"/><text x="720" y="225">Weak areas</text>
    <rect x="375" y="330" width="210" height="96" rx="22" fill="#047857" opacity="0.85"/><text x="408" y="385">Review path</text>
  </g>
  <g stroke="#d1d5db" stroke-width="5" fill="none" marker-end="url(#arrow)">
    <path d="M276 210 C320 178 348 176 375 178"/>
    <path d="M586 178 C625 178 655 192 685 210"/>
    <path d="M778 268 C725 340 640 375 586 380"/>
    <path d="M374 380 C265 360 185 312 170 268"/>
  </g>
  <defs><marker id="arrow" markerWidth="10" markerHeight="10" refX="8" refY="3" orient="auto"><path d="M0,0 L0,6 L9,3 z" fill="#d1d5db"/></marker></defs>
</svg>
